<?xml version="1.0" encoding="UTF-8"?><svg id="Layer_2" xmlns="http://www.w3.org/2000/svg" xmlns:xlink="http://www.w3.org/1999/xlink" viewBox="0 0 785.16 300"><defs><style>.cls-1{fill:url(#linear-gradient);}.cls-2,.cls-3{fill:#d03916;}.cls-4{fill:url(#linear-gradient-3);}.cls-5{fill:url(#linear-gradient-4);}.cls-6{fill:url(#linear-gradient-2);}.cls-7{fill:url(#linear-gradient-6);}.cls-8{fill:url(#linear-gradient-5);}.cls-9{letter-spacing:-.05em;}.cls-3{font-size:100px;}.cls-3,.cls-10{font-family:Bellefair-Regular, Bellefair;}.cls-11{letter-spacing:-.03em;}.cls-10{font-size:52px;letter-spacing:.48em;}</style><linearGradient id="linear-gradient" x1="11.88" y1="216.27" x2="247.72" y2="216.27" gradientUnits="userSpaceOnUse"><stop offset=".37" stop-color="#b62218"/><stop offset=".62" stop-color="#e34311"/><stop offset=".81" stop-color="#e96712"/><stop offset="1" stop-color="#f08814"/></linearGradient><linearGradient id="linear-gradient-2" x1="133.85" y1="120.86" x2="239.88" y2="120.86" xlink:href="#linear-gradient"/><linearGradient id="linear-gradient-3" x1="98.81" y1="105.92" x2="193.94" y2="105.92" gradientUnits="userSpaceOnUse"><stop offset=".37" stop-color="#b62218"/><stop offset=".55" stop-color="#b92417"/><stop offset=".93" stop-color="#e34311"/></linearGradient><linearGradient id="linear-gradient-4" x1="81.29" y1="78.98" x2="154.99" y2="78.98" gradientUnits="userSpaceOnUse"><stop offset=".37" stop-color="#b62218"/><stop offset=".78" stop-color="#b92417"/></linearGradient><linearGradient id="linear-gradient-5" x1="23.39" y1="108.74" x2="110.34" y2="108.74" gradientUnits="userSpaceOnUse"><stop offset=".37" stop-color="#b62218"/><stop offset=".62" stop-color="#e34311"/><stop offset=".81" stop-color="#e96712"/><stop offset="1" stop-color="#f08814"/></linearGradient><linearGradient id="linear-gradient-6" x1="0" y1="46.63" x2="121.79" y2="46.63" xlink:href="#linear-gradient-5"/></defs><g id="Layer_1-2"><path class="cls-1" d="m239.88,141.2c-7.03.55-14.06,1.1-21.09,1.65-.11-.16-.68.14-.8-.01-19.32,5.62-38.48,7.79-57.59,7.79-42.27,0-84.19-10.64-126.67-17.83l-3.23-.26s0,0,0,0h-6.85l-1.15,1.02s0,0,0,0c-6.55,13.96-10.34,29.37-10.6,45.5-1.02,65.42,50.06,120.16,112.84,120.93,68.19.85,121.61-49.46,122.97-115.82.31-14.97-3.05-28.4-3.05-28.4-1.49-6-3.29-10.94-4.78-14.57Zm-117.23,41.99s19.58,5.19,29.37,7.7c15.62,4,31.54,7.15,46.82,12.26,7.28,2.43,14.3,7.66,19.71,13.28,9.02,9.41,8.77,18.22,1.32,28.99-43.46,62.83-138.63,62.27-181.11-1.06-1.83-2.72-3.19-5.75-5.24-9.53,10.68-3.19,20.3-5.62,29.58-9.02,6.43-2.34,12.81-5.41,18.47-9.19,6.47-4.3,6.81-10.51.64-15.32-5.7-4.47-12.47-7.49-18.56-11.54,0,0-2.67-1.33-7.96-6.98-.06-.06-.19-.21-.24-.43-.39-1.91,6.6-4.78,9.13-5.83,19.2-7.9,57.97-9.45,57.97-9.45,25.18,0,17.97-1.04,28.93-1.33,0,0,23.83-.63,83.83.95-37.67,3.28-107.37,10.12-112.37,12.34-5,2.23-.3,4.17-.3,4.17Z"/><path class="cls-6" d="m166.71,121.96l-32.86,20.98,73.85-31.2v17.83l9.83,12.73c.04.06.08.11.13.17,0,0,0,0,0,0l.34.47c3.56-.28,7.13-.57,10.69-.85,3.73-.3,7.46-.6,11.19-.89-10-14.15-20.01-28.29-30.01-42.44"/><polygon class="cls-4" points="171.38 121.01 173.13 103.34 166.61 87.04 154.4 93.9 98.81 134.84 120.16 115.19 120.16 115.19 131.96 104.33 154.99 87.42 167.25 77 193.94 108.2 171.38 121.01"/><path class="cls-5" d="m154.99,87.42l-23.03,16.9-12.34-15.54-2.55-22.18c-10.14,8.03-20.29,16.07-30.43,24.1l-.2,1.29h0c-.5-.02-1.05-.07-1.63-.15-.41-.06-.79-.12-1.16-.2-.3,0-.77-.01-1.31-.2-.48-.16-.84-.4-1.06-.57,2.44-3.3,5.06-6.65,7.87-10.03,8.97-10.78,18.18-19.77,26.93-27.24l38.91,33.79Z"/><path class="cls-8" d="m109.33,89.46s-1.69,0-2.5-.33c-.8-.33-1.49.44-2.49.44-.99,0-1.94-.54-2.79-.31-.85.23-1.37.81-2.41.74-.89-.07-1.99.36-3.09.56-.1.01-.21.03-.32.04h-.07c-.07.02-.13.03-.13.03,0,0-.02,0-.04,0-.02,0-.63.07-1.32.14l-.52-.04-.96-.09c-.35-.28-.39-.6-.08-.73.31-.12.35-.18.09-.14-.27.05-1.18.07-1.21.07-.02,0-.14,0-.2-.01h-.05l-.68-.1c-.86.04-1.57.06-1.57.06,0,0-1.06.32-2.35.69,0,0-1.44.42-2.18.59-.54.12-1.43.1-2.15-.05h0l-.22.17c-.2-.05-.38-.11-.53-.18,0,0,0,0,0,0-.65-.33-2.14-.76-2.9-.89-.13,0-.2,0-.23-.03h0c-.65-.06-.92-.03-.92-.03-.54.07-1.13.11-1.7.13-.44.02-.85.02-1.21.01-.11,0-.21,0-.32-.02-1.1-.7-2.19-1.41-3.29-2.11-.05-.03-.1-.06-.15-.09h0s-4.27-2.53-4.27-2.53l-6.71,7.22-.03.04-36.46,39.22.54.06c.09,0,.19.02.28.02l18.07-16.24s0,0,.01,0c.52-.3.82-.63,1.08-.97l1.36-1.22.15-.14c.46.28.94.64,1.21.9l-1.06.88c-1.38,1.15-4.08,2.46-4.36,3-.28.54.23.76-.78,2.31-1.02,1.55-2.61,1.9-2.79,2.17-.18.27-1.73,1.96-2.14,2.7-.41.74-.86,1.12-.86,1.12-1.03.87-1.37,1.35-.76,1.07l.68-.64c.68-.65,1.14-.96,1.99-2.03l.74-.92c.58-.53,1.05-.96,1.05-.96h0s.02-.01.04-.03c.03-.01.36-.14.69-.25l.29.33c.41.46.36.79.04,1.18-.32.39-.89,1.22-.77,1.59.11.36.35,1.41.2,1.64-.14.24-.24.38-.24.38-.2.26-.38.48-.55.66l.14-.06c.87-.4,1.36-1.17,1.25-1.63-.1-.45-.32-1.57.03-1.8.35-.22,1.15-1.64.93-2.13l-.23-.5c.53-.48.97-.86.97-.86,0,0,.37-.33.83-.73l.04-.39c.09-.86-.21-1.51,1.34-2.48.29-.18.63-.4.99-.64l.06-.05c.07-.04.23-.09.36-.08l.19.11c.44.28.69.81.51,1.12-.18.3-1.04,1.3-1.06,1.76-.02.45.49,1.64.73,2.1.24.45.21,1.11.12,1.33-.08.23-.6.81-.94,1.38l-.34.58c-.15.81-.09.94.13.29l.58-.61c.59-.61,1.35-1.05,1.32-1.56-.03-.51.31-.92.05-1.54-.26-.63-.92-1.53-.67-2.12.25-.59,1.3-1.81,1.09-2.27l-.19-.42c.35-1.05.65-1.93.67-1.95.02-.02.07-.06.07-.06,0,0,.03-.02.06-.04.03-.02.38-.39.8-.82l.04-.26.12-.8c.3-.88.58-1.53.63-1.45.05.09.27.64.49,1.24l-.47,1.34-.08.22c.02.42.11.72.21.66.09-.05.55-1.02.97-1.3l-.08-.31c-.16-.58-.02-.9-.04-1.32,0-.08.93-1.4,1.15-1.68.22-.28.92-.47,1.2-1.29l.17-.5c.21-.96.45-1.83.52-1.92l.08-.1c.33-.41.59-.7.78-.9l.55-.5c1.02-.71,1.75-.78,1.63-.13-.12.68-.57,3.04-.89,3.75v.35c-.02.63-.26,1.4-.43,1.59l-.18.19c-.6.59-.67.79-.16.45l.48-.18c.49-.18.81-.82.82-1.22.01-.4.75-.39.98.13l.08.16c.07.14,0,.96-.13,1.81l-.44.52c-.68.8-1.58,1.2-2.65,1.8-1.08.59-1.93,1.73-2.18,2.17-.1.17-.31.78-.64,1.18-.53.62-1.24,1.05-1.34,1.09-.16.07,1.08-.13,1.92-1.23l.07-.11c.08-.1.26-.24.41-.31l.18.12c.42.27.78.56.41,1.4-.37.84-1.53,1.64-1.16,2.78.37,1.14.5,1.76.13,2.18-.37.43-1.79,1.15-2.26,1.63-.48.48-1.17,1.59-1.17,1.59-.71,1.14-.91,1.97-.44,1.83l.55-.85c.55-.85.94-2.05,1.47-2.44.53-.39,2.5-1.48,2.56-2.03.05-.55-.39-2.33-.12-2.64.27-.31,1.7-2.27,1.35-3.43l-.34-1.16c.18-.35.95-1.1,1.71-1.68.76-.58,1.49-.41,1.2-.01-.28.41-.32.65-.09.54s1.35-1.34,1.33-1.09l.31.27c.65.56.99.23,1.43,1.12l.45.89c-.18.9-.04,1.01.33.24l-.27-.88c-.27-.88-.55-1.2-.93-1.83l-.37-.63c.18-1.29.33-2.34.33-2.34,0,0-.13-.46-.29-1.03-.15-.56.93-2.58,1.29-2.94l.48.17c.54.19.69.68.89,1.38l.21.69c1.02.39,1.14.31.25-.19l-.07-.72c-.06-.72.18-1.51-.22-2.03l-.17-.22c-.02-.27.43-.89,1.02-1.4.59-.51,1.43-.27,1.87.54l.09.48.05.3c.91-.03,1.65-.06,1.65-.06,0,0,.13-.02.3-.04.16-.02.8-.07,1.12-.03.33.03,1.69,1.62,2.44,2.74,0,0,.18.26-2.3,1.18-2.47.93-2.88.27-4.2.87-1.32.6-1.55,1.96-1.57,2.57-.02.61.77,1.9-.14,3.07l-.91,1.17c-.06.36.19.24.55-.25l.39-.39c.39-.38,1.14-1.37,1.01-2.86-.13-1.49.72-2.42,1.95-2.49l1.23-.06c1.17-.24,1.34.37.39,1.32,0,0-.11.11-.63.93-.06.09-1.01,1.57-1.33,2.34-.33.8-.28,1.67-.49,2.47-.21.79-.43.97-1.21,1.78-.78.81-1.63,2.07-1.71,2.38l-.08.32c-.66.62-.6.85.14.51l.19-.46c.18-.46.64-1.34,1.21-1.88.58-.54,1.69-1.44,1.84-1.94l.15-.49c.19-.35.34-.62.34-.62,0,0,0,.31-.02.68v.26c.02,1.24,1.08,1.6,1.44,2.14.25.39.82,1.32.3,2.75-.1.26-.23.54-.41.83l-.19.31c-.21.58-.24.72-.06.29l.5-.58c.2-.23.41-.5.58-.77.21-.33.18-.66.25-1.01.05-.24.26-.52.2-.76-.37-1.58-.64-1.61-.9-2.19-.12-.26-.4-.47-.56-.85-.19-.46-.24-1.12-.16-1.71.06-.41.48-.79.63-1.29l.09-.3c.08-.34.2-.67.28-.72l.16-.04c.53-.15.96-.16,1.15.2.18.36.5,1.27.57,1.48.07.22.71,2.2,1.17,2.39.46.19.88.02,1.03.56l.14.53c.09.48.28,1.11.41,1.42.13.3.42.28.05-.35l-.08-.49c-.09-.48,0-1.48-.2-1.71-.2-.23-1.11-.39-1.35-.93-.24-.54-.52-2.79-.9-3.56l-.38-.77c-.15-.44-.26-.79-.26-.79,0,0,.85-.7,1.89-1.57,0,0,.88-.72,1.13-1.52.34-1.11-.26-3.07-.6-3.92l-.33-.84c.29-.72.67-1.32.84-1.33l.09.03c.52.2.91.85.98,1.14.07.3-.06.97.24,1.29.3.32,1.35.75,1.39.8l.05.04c-.53.85-.59,1.38-.14,1.18l.29-.55.03-.05c.03-.06.15-.28.27-.47l.13.09c.13.09.25.21.25.54,0,.33.14.79.43.94.29.15.95.22,1.05.28l.1.07c.17.89.34,1,.38.23l-.27-.37c-.3-.41-.95-.26-1.12-.5-.17-.22-.15-1.27-.36-1.45-.21-.18-.4-.53-.77-.67-.32-.14-1.3-.41-1.25-1,.06-.6.09-1.7-.29-2.03l-.39-.33c.66-.46,1.63-.88,2.16-.94h.54l1.58-.05c1.24.33,2.34.73,2.47.87l.03.14c.12.64-.1,1.4-.16,1.95-.06.55.47,1.79.53,2.03.06.24-.94,1.39-1.08,1.93-.1.37-.12.46-.12.48.44-.58.79-1.05.79-1.05,0,0,.39-.32.87-.71l.47.61c.47.61,1.09.51.82,1.8-.28,1.29-.46,3.09.2,3.46.66.38,1.47.6,1.73,1.17.26.58.27,2.7.28,2.8l.15.66c.69,1.13,1.07,1.62.84,1.09-.23-.53-.61-1.83-.56-1.88h.16c.46.05.63.15.73.45.09.31,0,.5.35.89.35.39,1.03.4,1.39.75l.36.35c.28.3.42.11.32-.45l-.62-.19c-.62-.19-1.01-.44-1.18-.69-.16-.25-.41-.96-.77-1.19l-.35-.24c-.35-.32-.34-1.47,0-2.56l-.74-.37c-.74-.37-1.69-.54-1.75-1.33-.07-.8.6-2.78.19-3.68l-.41-.9c-.82-.96-1.5-1.75-1.5-1.75,0,0-.01-.34-.02-.74,0-.41.25-.5.57-.18l.48.39.13.1c.26.04.48.07.48.07,0,0,.41.15.9.34l.37.48c.37.48,1.98,1.04,2.52,1.15.32.06,1.05.75,1.52,1.45.31.47.4,1.01.61,1.12.29.15.99.03,1.8.02.66,0,1.4.13,1.91.03l.48-.1c.46.14,1.01.33,1.22.42l.13.44c.13.43.23.98.42,1.34.2.36.78.62,1.04,1.13l.27.51c-.27.78-.24,1.02.09.52l.2-.88c.2-.88-.47-.76-.98-1.16-.52-.4-.3-.91-.13-1.1l.09-.09c.37.04,1.1.43,1.63.88.53.44,1.34-.27.64-.51l-1.03-.44c-.34-.15-.66-.29-.9-.42l-.14-.08c-.15-.1-.32-.2-.36-.23-.05-.03-.57-.39-1.17-.8l-.69-.14c-.19-.04-.6.27-.79.24-1.13-.18-2.36.08-2.82-.06l-.32-.09c-.56-.76-.93-1.47-.83-1.58l.19-.09c1.16-.53,1.98-.9,2.4-.64.41.26.9,1.1,1.85.99.94-.11,1.87-.83,2.99-.45,1.13.38,1.88.72,1.88.72,1.24.54,1.33.37.21-.38,0,0-.84-.56-2.47-.86-1.64-.3-2.69.77-3.14.35-.44-.42-.71-1.46-1.62-1.26-.9.2-1.17.24-1.17.24-1.34.2-2.43.36-2.43.36,0,0-.47-.05-1.04-.1l-.43-.22c-.59-.31-.77-.57-.86-1.01l-.03-.16c.19-.1.57-.24.87-.3l.3-.06.77-.15c.88.24.83-.03-.11-.59l-.57.11c-.64.12-1.88.47-2.02.44-.06,0-.71-.52-.93-.92-.33-.57-.26-1.09-.37-1.27l-.07-.11c-.21-.21-.26-.51-.1-.66l.22.1c.62.28,1.3.38,1.98.41.69.02,1.42.06,2.22.67.8.6,1.23,1.38,2.81,1.97l1.58.59c.9-.2.85-.45-.1-.55l-1.34-.47c-1.33-.47-1.27-1.71-2.2-2.55-.94-.85-1.17-.75-2.77-.8-1.6-.06-1.7-.46-2.32-1.15-.61-.69-1.41-.63-2.62-.6l-.75.02c-.43-.13-1.46-.6-2.29-1.03l-.36-.25c-.57-.39.64-.86.64-.86,1.26-.48,3.07-1.05,4.01-1.27l1.84.86.23.11c.22.09.59.35.8.56l.29.27c.88.85,1.36,1.05,1.85,1.12.49.07,1.19.31,1.39.55l.21.23c.51.74,1.2,1.49,1.53,1.66.32.18.48.07.11-.22l-.4-.57c-.39-.57-.67-1.33-1.37-1.92l-.69-.58c.06-.34.55-.66,1.08-.7l.44-.08.48-.09c.72-.28,1.95.34,2.73,1.38l.37.58c.36.58,3.73,1.49,4.36,1.45.63-.04.95.01,1.57.7.61.69,1.34,1.52,2.15,1.64.41.06,1.29.05,2.18,0,.37-.02.89.64,1.34,1.03.45.39,1.26.3,1.53.4.27.1.43,1.05.79,1.51.36.46.93.29.65.23-.28-.07-.73-.67-.8-1.04-.07-.36-.19-.86-.26-1.02-.07-.17-1.06-.06-1.53-.28-.47-.21-.19-.36-.11-.62l.07-.26c.56-.02,1.56.07,2.23.2.67.13.81-.02.3-.34l-1.83-.31c-1.84-.31-3.58.03-4.49-.09-.91-.14-1.21-1-1.62-1.91-.42-.92-1.8-.57-2.46-.47-.66.1-2.99-.63-3.49-1.4-.41-.63.22-1.21.46-1.39.17-.12.34-.25.5-.27l.97-.16c.74.35.41.07-.75-.63,0,0-.03-.01-.7.03-.68.05-1.4-.67-1.93-1.08l-.32-.24c-.81.2-1.49.36-1.56.37.05-.02.37-.14.75-.27l.28-.08c.61-.19,1.58-.16,2.43-.5l.85-.34c.77-.52.36-.59-.92-.15,0,0-.4.14-.64.07-.25-.06-.82-.36-2.7.41l-.45.18c-.57.16-1.09.3-1.15.3h-.06c-1.23.18-3.57-.06-4.04-.24-.47-.17-1.08-.55-1.08-.55-1.16-.7-1.23-1.49-.16-1.76,1.06-.27,3.04-.51,4.39-.52,0,0,.79-.01,1.98-.29l.37-.08c.73-.6,1.49-1.09,1.7-1.1l.12.12c.4.37.33.73.74.84.41.11,1.39-.18,1.64-.13.26.05,1.33.28,1.69.48.35.2-.43-.53-1.34-.64-.9-.11-1.64,0-1.9-.15l-.08-.04c-.05-.12.08-.39.31-.61l.46-.04c.83-.07,1.41-.27,2.21.41l.32.28c.74,0,1.55.77,1.8,1.71l.47.5c.5.52,2.07,1.26,2.75,1.74.66.48.12.99.37,1.29.24.3,1.08.97,2.31,1.3,1.24.33,2.79.78,3.98.58l.72-.13c.62.23.69.18.14-.1l-.11-.04c-.18-.07-2.64-.37-3.19-.53-.56-.16-2.06-.41-2.72-.78-.66-.37-.19-.48-.09-1.08.1-.61,0-.49-1.13-1.24-1.13-.76-1.93-1.03-2.32-1.73l-.39-.69c.86-.73,2.65-1.11,3.97-.84,0,0,.04,0,.67.65.64.65,2.73.51,2.73.51,1.35-.09,1.35-.19,0-.22,0,0-.12,0-1.08-.39l-.31-.12c-.35-.25-.9-.78-1.22-1.18l.5-.23c.5-.23,1.28-.68,2.01-.62.73.07,1.88.4,2.6.01.72-.38,1.2-.75,2.24-.67,1.03.08,2.19.01,2.19.01,1.34-.07,1.34-.13,0-.14Zm-42.28,12.09s-.44.31-.94.27l-.5-.03c-.31-.63.34-1.25,1.44-1.4,1.1-.14,1.1.38,0,1.16Z"/><path class="cls-7" d="m117.08,42.09l.34-.61c.61-1.02,1.37-.11,1.86-.19.49-.04.98-.15,1.93-.3.91-.12.49-.53.42-1.06-.07-.49.27-2.08,0-2.65l-.23-.57c.11-.27-.23-1.37-.8-2.46,0,0-.04-.04-.23-.23l-.15-.19c-.19-.26-1.25-.83-2.35-1.32,0,0-.53-.23-.72-.42-.15-.19-.53-.38-.91-.42l-.15-.04c-.15-.19-.35-.34-.35-.41-.04-.04-.26-.42-.38-.72v-.19l.04-.49c.46-.46.72-.87.61-.95-.12-.07-.68-.38-1.32-.68l-.3-.38c-.3-.38-.38-.8-.3-1.06.04-.23,1.17-.61,1.59-.98.46-.38-.23-.99-.49-1.29l-.04-.07c-.23-.04-.57.07-.83.3l-.04.07-.19.27c-.5.53-1.78,1.32-2.85,1.71l-.46.15c-.41.11-.11,1.71-.11,2.05,0,.3,0,1.37-.08,1.37-.04,0-.72,1.02-.98,1.29-.23.23-.68.42-1.37.23l-.68-.15c.23-.53.8-1.14,1.29-1.36.49-.19.61-1.37.27-2.54,0,0-.19-.64-.08-.83.15-.19,1.63-.8,1.74-.98.12-.19.8-1.1.57-1.6-.27-.49,0,0-.42-.3-.38-.34-1.25-.87-1.55-1.32-.34-.42,1.67-1.14,1.55-1.14-.41-.04-.87-.15-1.02-.42-.27-.49.15-.34,0-.83-.12-.53-.87-1.21-1.18-1.21s-1.36.64-2.35.76c-.98.12-.87-.38-1.06-.61-.19-.27.35-.68.35-.95,0-.23-1.25-1.55-1.06-2.09.19-.57.3-.87.3-1.06s-1.06-1.06-1.37-1.14c-.3-.04-1.78.38-2.16.38h-.38c-.12-.3-1.18-.64-2.39-.8,0,0-.07,0-.11-.27,0-.23-.53-.23-.61-.8-.04-.53.26-1.18.49-1.55.27-.34,0-.61,0-.83,0-.27-.04-1.06-.42-1.25-.38-.19-1.93.23-2.23,0-.3-.27-.3-.5-.38-.69-.04-.19-.53-.57-.68-1.1-.12-.53-.53-.07-.8-.04l-.23.07c-.53-.04-1.4-.26-2.01-.49l-.19-.07c-.19-.04-.34-.3-.41-.76-.08-.42-.19-.53-1.1-.91l-.95-.38c.11.49-.04.8-.27.68-.27-.08-.53-.3-.61-.49l-.19-.19-.19-.15c-.38-.19-.84-.04-.95.3-.12.34-1.21.72-2.43.83,0,0-.15.04-.46.12l-.3.07c-.15-.64-.68-1.17-1.25-1.17h-.23c-.27,0-.46.64-.46,1.1v.45c-.87-.26-1.71-.64-1.82-.83-.12-.23-.38-.46-.57-.53-.19-.12-.64-.08-1.02.07-.34.15-.84.19-1.06.15-.19-.07-.91-.23-1.14-.3-.27-.04-.87.08-1.37.3l.87.3c.87.3,1.25.15,1.48.3.27.19,1.18,1.14,1.37,1.14s.8-.87,1.59-.61c.83.23,1.89.15,2.01.61.12.42-.27,1.97-.49,2.05-.27.04-.53-.15-.53-.15-1.02-.69-2.12-1.06-2.5-.8l-.38.08c-.38.07-2.54-.8-2.62-1.06l-.04-.23c-.19-.61-.8-1.14-1.37-1.25l.12-.19.04-.07c0-.27-.3-.53-.68-.53s-.91.19-1.25.34c-.3.19-.8.76-.84.8-.07.04-1.06.12-1.74.04l-.12-.07c-.19-.12-1.36-.65-1.93-1.1-.57-.42-1.74-1.18-2.05-2.01-.3-.87-.12-.46-.3-.99l-.19-.49c-.46.12-1.67.19-2.73.15l-1.44-.49-1.44-.49c.57-.15.72-.23.3-.23-.38,0-.91.15-1.18.35-.27.23-.95.53-1.52.68l-.19-.12c-.19-.12-.04-.57-.3-.8-.23-.27-.57-.07-.8,0l-.27.04c-.07.38-.83.72-1.71.76l-.64-.07-.61-.04c-.04-.19-.49-.49-.98-.68h-.49c-.64.27-1.52.8-2.01,1.18l-.23.26-.27.3c-.98-.15-2.01-.07-2.28.15-.26.27-.68.95-.95.99-.23.07-.8.26-.8.26-.3.12-1.48.08-1.48.87,0,0-.46.19-.99.42l-.3.57-.11.15c-.12.12-.35.27-.5.3-.15.04-.26.08-.26.12.04.04-.04.07-.19.15-.12.04-.38.11-.5.11.19-.19.61-.53.61-.64v-.19c0-.27-.76-.57-1.66-.61l-.12.12-.15.12c-.87.49-1.67,1.02-1.71,1.21-.04.08-.08.19-.12.27l-.23.23c.11-.12-.08-.35-.38-.5-.34-.19-.72-.19-.83-.04-.15.12-.38.34-.57.46-.15.12-.91.12-1.66.04v.35c-.91-.5-1.4-.53-1.6-.53h-.11s-.91.35-.91.57-.12,1.78.23,2.12c.34.34.61.8.27.95-.15.04-.34.26-.57.57-.11.04-.26.04-.46.08v.23c0,.19,0,.38.04.57,0,.15,0,.29.06.37-.11-.12-1.36-.65-1.39-.21l-.04.46c0,.41-.15.75-.38.8-.19.04-.45.07-.53.07h-.19s-.72.12-1.63.23l-.23.53-.04.12c-.03.05-.06.12-.09.15l.31-.38c.42.04.68.5.64,1.06l.08.19.07.23c-.61.12-1.1.42-1.1.61s-.23.19-.49-.04c-.27-.19-.49-.38-.53-.38l-.04.08s-.3.11-.68.3l-.15.49c-.15.49-.76,1.36-.64,1.63l.07.3c-.15.46-.72.87-1.21.87-.53,0-1.25.41-1.63.91l-.3.3c-.3.3-.12.26-.3.3-.23.04-1.36,0-1.36.35l.04.3c-.15.23-.27.41-.27.45,0,0-.23.27-.46.5l-.23.19c-.19.15-.3.12-.27.34.04.19.12.46,0,.57l-.12.11c-.34.27-.98.46-1.44.42l-.12.04c-.11.04-.87.04-.98.42-.12.38-.34.91-.34,1.1,0,.23.34.69.26.95-.04.3-.68.69-.87.87-.04.04-.08.07-.15.11l-1.59-.8h-.84s-.57.23-.57.38c0,.19-.23.46,0,.41.26,0,1.44.16,1.44.16l.68.41c-.19.12-.3.23-.38.3-.19.3-.49.42-.53.76-.04.34-.34.57-.23,1.1l.15.57c.04.3-.19.68-.49.83-.34.19-.84.49-1.14.76-.27.23-.61.42-.69.46-.12.04-.57.26-1.06.53v.38c0,.38-1.1,1.59-.98,2.23.15.61.38.83.38.83.87.84,1.82,1.75,2.05,2.05.23.3.8,1.37.64,1.55-.19.19-.57.42-.8.53l.46.61.45.61c.15.26.08.6-.11.72-.19.12-.69.23-1.1.23-.38,0-1.1-.27-1.52-.57l.04.57.08.53c-.04.34-.65.49-1.37.34l-.19-.15-.19-.11c-.64-.27-1.59-.5-2.08-.5-.53,0-1.02.23-1.1.53-.07.3-.38.91-.64,1.4h-.3c-.3,0-.76-.69-.68,0l.04.68c.34.49.61.95.61,1.03,0,.07-.19.38-.19.38,0,0-.53.15-1.21.3l-.19.57c-.19.57-.41,1.14-.41,1.48v.38c.15.23.07.64-.19.87l.19.42c.19.46-.42.27-.04.83.34.53.38.99.91,1.29.53.3.72.26.3,1.02-.46.76-.41.95-.3,1.33l.12.38c.57.42,1.18.76,1.37.76l.42.42c.46.41.64,1.14,1.51.98l.19-.04c.19.04.26.34.23.68l.12.15.19.27c.72-.15,1.32-.34,1.37-.42,0-.12.41-.27.46-.64l-.04-.23c-.04-.27-.72-.69.04-.69s.45-.11.75,0c.27.12.3.12.38.46.04.34.15.53.27.76v.12c0,.11-.57.38-.65.26l-.07-.15c-.08-.11-.38-.11-.64-.04l.15.12.12.12c0,.19.64.68,1.44,1.14l.46-.08c.49-.04,1.25-.68,1.51-.61.23.08.38.12.38.12,1.14.46,2.27.38,2.54-.15.27-.53.98-1.06,1.59-1.21l.19-.26.19-.27c.46.15,1.02-.04,1.21-.41.23-.38.68-1.06,1.02-1.44l.23.23.26.26c.84.69,1.75,1.52,2.05,1.82l.23-.19c.27-.23,1.74-.57,1.93-.72l.04-.04c.3-.04.57-.23.57-.42.04-.15.15-.38.27-.53.19.46.34.76.34.76,0,0,.27,0,.57-.04l.07.04c.19.04,1.21-.61,1.1-.99-.11-.38,0-1.06,0-1.32s.95-.72,1.14-.69c.15.08,1.78,1.1,1.78,1.37-.07.27-.76,1.06-.68,1.25.07.19.3.99.68,1.06.38.04,1.06-.19,1.29-.07.27.11.15.49,1.06.91.95.38,1.48,1.14,1.48.27s.19-.87.49-.83c.3.04-.61-.04.57.57,1.18.57.38.27,1.18.57.8.3,1.37.19,1.37.19,1.17-.26,2.57-.64,3.11-.8l.3.04c.3.04,1.78.38,1.74,0l-.04-.26c-.38-1.03.3-1.71,1.51-1.48l.49.23c1.18.53,2.46.57,4.59,1.4,2.08.8,3.03,1.1,6.07,1.29,2.08.12,4.02,1.33,4.02,1.33,1.06.64,2.08,2.12,2.31,3.33.02.18.05.46.08.8.36,4.2.09,7.38,0,8.57-.28,3.69-.17,5.71-.26,11.93-.03,1.86-.08,4.66-.19,8.12,2.33-2.6,4.67-5.2,7-7.8.79.5,1.62,1.01,2.48,1.51.51.29,1.01.58,1.51.85.07-9.32.13-16.28.14-19.27,0-1.78.18-3.56.23-5.34.04-1.21.19-2.46.3-2.77.12-.3.98-1.14,2.01-1.89,0,0,2.76-2.05,4.4-3.07l.49-.3c.57-.3,1.03-.57,1.03-.57,0,0,.19-.04.49-.04.26,0,1.4.19,1.48.3.12.08.34.15.49.12.15,0,1.14-.15,1.4-.12.3,0,.99-.23,1.25-.26h.12c.57,0,.49-.15.98-.42.5-.23.95-.38,1.75-.91l.61-.42s.57-.11,1.32-.11c.76-.04,1.71.38,2.16.91.42.53,1.21,1.21,1.74,1.6.49.34,1.52.49,2.2.38l.64-.27c.61-.23,1.18-.19,1.48-.3.3-.15.61-.8,1.4-1.29.8-.49.76-.12,1.02-.12.23,0,.5.23,1.97.95,1.48.68,2.35.04,3.22-.53l.87-.57c.3.61,1.06,1.18,1.75,1.26l.23-.15c.27-.19.38.15.98,0,.64-.19.49-.72.76-1.33.23-.61.49-.19.69-.49l.15-.23c.72-.23,1.17-.45.98-.45l-.23-.12c-.38-.23-.23-.87-.23-1.33,0-.41.12-.61,0-.76.27.38.49.64.61.64l.38-.07c.61.04,1.33.23,1.59.38.23.19.46.5.46.72s.5,1.37,1.14,1.82l.23-.12c.38-.19.19-.3.57-.76.34-.41.91-.12,1.48-.61l.53-.49c.08-.17.21-.42.38-.72,1.04-1.79,2.32-2.91,2.23-3-.03-.03-.18.15-.57.29-.25.1-.53.18-.8.24h-.3c-.3,0-.57.83-.76,1.02l-.19.15c-.61.12-.95-.76-.8-1.97l.11-.46c.15-.46,1.33.46,1.55.53.27.04,1.06-.07,1.14-.3l.04-.27c-.04-.26.27-.49.68-.49.38,0,.72-.04.76-.07v-.04c.12-.46,0-.5-.07-.95-.04-.42-1.1-.72-1.67-.91l-.23-.08c-.41.23-1.02.27-1.4,0-.34-.23-.64-.42-.91-.95.8-.42.57-.42.3-.46-.27-.04-.53-.15-.53-.3v-.15s.12-.23.27-.46ZM12.05,56.91c-.15.12-.83.15-1.06.34-.19.19-.07.76,0,.84.08.12-.72-.19-.95-.49-.19-.3.12-.35.19-.49l.12-.15c.34-.3.68-.65.76-.76.07-.15-.08-.42-.3-.64l-.12-.12-.12-.12c.57-.15,1.33.04,1.71.46l.15.19c.15.19-.23.84-.38.95Zm2.23.42c-.04.07-.34.19-.57.23-.23.07-.15.38-.15.64,0,.3-.27.57-.46.68-.23.07-.08-.04-.3-.15-.23-.07-.23-.19-.3-.34-.08-.19.07-.49.12-.83.04-.35.49-.57.64-.87l.15-.3c.15.15.38.23.46.15.07-.12.26-.12.41,0,.04,0,.04.23.04.46,0,.15,0,.3-.04.34Zm1.63-15.58c-.8.91-1.78,2.2-2.16,2.88l-.34-1.25-.34-1.21c0-.57-.15-.91-.38-.76l-.23-.61-.27-.64c-.08-.15-.42-.49-.76-.72-.38-.27-.64-.76-.64-1.14s.04-.34.12.07l.49.61c.49.64,1.78.57,2.27.57.53,0,2.31,1.48,2.39,1.74.04.23-.15.46-.15.46Zm7.54,13.53l-.23.04c.04.12.11.23.15.3-.08,0-.15-.04-.3-.12-.38-.15-.38.12-.49.12s-.99.19-1.29.08c-.3-.15.04-.35,0-.46-.04-.15-.41-.38-.68-.42-.3,0-.8-.42-1.14-.95-.35-.57,0-.27.26-.61.23-.34.8.15,1.25.19s1.89,1.37,2.09,1.37c.07-.08-.46-.46-.57-.83-.15-.38.46-.61.76-.72.34-.07,1.1,1.1,1.1,1.29,0,.23-.72.69-.91.72Zm1.14-34.27c-1.25-.27-.34,1.14-.34,2.05s-1.06.19-1.32,0c-.27-.15-1.48-.91-1.63-1.14-.15-.27.57-.98.91-1.48.34-.49.64-.6.91-1.02l.23-.38c.69.23,1.25-.07,1.25-.64s.27-.83.57-.57c.34.26,1.21,1.21,2.01,2.16,0,0,.07.12.07.46s-1.4.8-2.65.57Zm4.7-5.19l-.65-.49c-.68-.53,0-.91,0-1.52v-.57c.69-.04,1.33.46,1.44,1.14.11.64.19,1.36.19,1.55s-.42.15-.98-.12Zm20.96-9.93c.04-.95.23-.72.46-.91s.08-.87.27-1.14c.19-.3.38-.91,0-1.29l-.38-.35c-.19-.04-.26-.23-.11-.45.15-.19.45-.38.68-.38s.61.23.8.46v.3l-.04.3c.3.57.64.64.8.19l.12-.23c.11-.27.57-.15.83-.27.3-.12.04.87-.34,1.32-.38.5,0,.65.11,1.18.15.53.35,1.63.19,1.97-.12.3-.61.23-1.86.49-1.21.27,0,.87,0,.91v.04c-.3.49-.87.61-1.21.23l-.3-1.17c-.34-1.14-.07-.27,0-1.21Zm-3.38,0l.19.07c1.06-.38,2.16-.41,2.46-.07h.12c.15,0,.12.42.12.42-.08,1.21.57,2.96,1.44,3.86,0,0,.64.69.91,1.03.23.3-.12,1.06,0,2.05.08.99.08,1.67.72,2.73l.07.07c.04.12.04.3-.04.38l-.04.04-.04.04c-.41.04-.83-.49-.98-1.17l-.34-.3-.42-.38c-.46.49-1.02.57-1.29.19l-.12-.11c-.27-.3.3-2.73,0-3.15-.27-.38-2.5-2.54-2.77-3.04-.23-.49-.15-2.73,0-2.65Zm.3,36.65h.38c.95.42,2.2.84,2.8.95.57.08,1.63.76,2.35,1.44l-.04,1.03c-.08.98-5.54-2.23-7.24-2.57-.41-.12-.8-.19-1.17-.27.38,0,2.54-.57,2.91-.57Zm3.11,11.98c-.26.42-2.5,1.03-4.21.64-.91-.23-1.1-.23-1.1-.23-1.21-.23-1.97-.61-1.66-.84l.04-.19c.07-.53.27-1.59.27-1.59.23-1.21,1.29-1.67,2.31-1.03,0,0,2.12,1.29,2.88,1.63.76.3,1.71,1.21,1.48,1.59Zm5.15-1.48c-.3.49-.64-.8-2.27-1.48-1.59-.64-3.26-.72-4.51-1.1-.61-.15-2.58-1.44-2.58-1.44-1.02-.69-1.93-2.05-2.01-3.04-.07-.98-.3-1.89-.3-1.89,0,0,.84.53,1.86,1.21l.91.38c1.74.8,4.02,1.37,4.89,2.16.87.84,1.55,2.12,2.76,2.62,1.18.53,1.52,2.12,1.25,2.58Zm2.16-2.8s-.46-.57-.61-.69c-.15-.07-1.89-1.37-2.31-2.12-.46-.76-.57-1.03-.57-1.03-.49-1.14-.98-2.2-1.14-2.43-.12-.19.3-.38.95-.38.64-.04,1.1-.15,1.02-.3-.04-.12-.19-.3-.26-.38.11,0,.34.19.6.3.3.19,1.03,0,1.63-.38.57-.38,1.14-.42,1.21-.04.11.34.49,1.63.8,2.8,0,0,.3,1.06.53,3.41l.04.8c-.26,1.17-1.1,1.37-1.89.42Zm7.2,1.29l-.19-.42c-.41-.87-1.4-4.24-1.4-5.34s-.26-4.36-.46-4.7c-.07-.15-.11-.23-.11-.23-.72-1.02-.72-1.86-.08-1.86.69,0,1.63.3,2.08.72.5.42.91,1.78.87,2.99,0,0-.04,3.45-.3,3.83-.27.41.12,1.86.46,3.94l.12.57c.07.64-.38.87-.99.49Zm21.3-43.48s.19.04.69-.23c.07-.04.15-.07.23-.11,0,.04.04.11.04.19.19.34.3.8.3,1.02,0,.27-.23.61-.53.76-.3.15-.76.38-.99.46-.26.12-.46.84-.46,1.67l.3,1.06c.35,1.06-1.89,0-2.39-.69-.53-.64.19-.8.57-1.4.41-.57-.08-.64-.49-1.48l-.38-.83c.49-.35,1.89-.53,3.11-.42Zm-18.15,36.28s-.08-.19,0-.15c.04.07.11.15.11.19-.07,0-.11,0-.11-.04Zm4.32,1.97l-.3.42c-.57.83-1.25,1.67-1.17,2.99.04,1.33-1.25,2.28-1.55,2.28s-.38-1.52-.91-2.28c-.53-.8-.23-2.46-.07-3.18l.11-.34c.46-.5,1.71-.91,2.77-.91,1.03.04,1.55.49,1.14,1.02Zm2.12-21.57c.23-.34.53-.53.53-.53,1.06-.57,2.09-.72,2.24-.3.19.38.19.8,0,.91-.15.12-.46.53-.64.95-.23.42-.04,1.71.41,2.85,0,0,.04.11-.07.49-.12.38-1.25.98-1.82.72l-.57-.23c-.04-.34-.27-1.03-.46-1.48l-.61-1.14c-.64-1.1.72-1.86.98-2.23Zm-.72,22.44l.15-.53c.42-.87,1.14-1.66,1.55-1.74.42-.04,1.29-.41,1.94-.8.64-.38,1.21-.68,1.32-.61.08.04.23.12.23.19v.04c-.3.53-1.63,1.25-1.86,1.44-.23.15-.76,1.25-1.14,2.43-.35,1.21-2.51.49-2.2-.42Zm6.3,2.2l-.34.46c-.46.8-1.82,1.74-3,2.12,0,0-.61.19-.83-.07-.3-.34.53-.87.72-1.1.19-.23.68-.91.87-1.89.15-.99.87-2.24,1.44-3.26.19-.38.61-.84,1.1-1.29-.07.41-.11,3.11.04,3.03.15-.12.46,1.4,0,2.01Zm1.59-37.68c-.3.53-1.29.91-1.59.61l-.3-.3c-.34-.49-.42-1.17-.15-1.52.23-.38,1.29-.11,2.31.61,0,0,.07.04-.27.61Zm5.04,30.1l-.15.27-.15.23c-.57,0-1.06.23-1.14.5-.07.3.04.64.23.83l-.87-.3-.87-.34c-.19.27-.46.53-.64.64-.15.12-.41.19-.57.19s-.35-.04-.38-.07c-.07-.04-.15-.04-.15-.04,0,0,.53-.26,1.18-.6l.11-.42.12-.46c.46.23,1.1.34,1.48.19l.38-.76c.38-.72.27-.3.46-.34l.12-.04c.49-.27.87-.3.87-.08v.61Zm.72-24.3c-.3.61-.68,1.4-.87,1.82-.15.38-.64,1.03-1.02,1.37-.42.34-.91.8-1.14,1.02-.19.27-.38.57-.38.76,0,.15-.64-.15-1.48-.68v-.38c0-.38.75-.6,1.85-1.85l1.14-1.26c0-.53.23-.98.49-1.02.27-.04.49-.08.49-.08l.12-.75.12-.72c.68.42.98,1.21.68,1.78Zm21.46,32.33l-.27-.19c-.15-.12.23-.35.34-.95.12-.42-.07-.91-.04-1.18l.12-.68c.3.38,1.02.8,1.59.98l-.08.61c-.04.53.12.95.34,1.32-.26.12-1.17.15-2,.08Z"/><rect class="cls-2" x="258.18" y="103.98" width="6.48" height="153.52"/><text class="cls-3" transform="translate(278.45 244.97)"><tspan class="cls-11" x="0" y="0">T</tspan><tspan class="cls-9" x="52.6" y="0">YRANNUS</tspan></text><text class="cls-10" transform="translate(278.45 132.69) scale(.97 1)"><tspan x="0" y="0">SCHOOL OF</tspan></text></g></svg>